<svg xmlns="http://www.w3.org/2000/svg" width="80" height="40" fill="none">
  <path fill="#4820F8" fill-rule="evenodd" d="M36.283 3.71c-2.402-2.407-6.66-2.29-9.522.578a1.007 1.007 0 0 1-1.423.003 1.004 1.004 0 0 1-.003-1.421c3.503-3.513 9.048-3.913 12.374-.578 3.324 3.332 2.925 8.884-.576 12.395l-4.61 4.622a1.007 1.007 0 0 1-1.423.002 1.004 1.004 0 0 1-.003-1.42l4.61-4.623c2.863-2.87 2.98-7.146.576-9.557ZM21.63 8.01c.394.391.395 1.028.003 1.42l-4.09 4.102c-2.863 2.87-2.98 7.146-.576 9.558.392.393.39 1.03-.003 1.42a1.007 1.007 0 0 1-1.423-.002c-3.324-3.332-2.926-8.884.576-12.395l4.09-4.1a1.007 1.007 0 0 1 1.423-.004Z" clip-rule="evenodd"/>
  <path fill="#000" fill-rule="evenodd" d="M23.03 15.49a1.007 1.007 0 0 1 1.424.002c3.323 3.332 2.925 8.884-.577 12.395l-9.219 9.243c-3.503 3.513-9.047 3.913-12.374.578-3.323-3.332-2.925-8.884.577-12.395l4.61-4.622a1.007 1.007 0 0 1 1.422-.003c.394.392.395 1.029.003 1.422l-4.61 4.622c-2.862 2.87-2.98 7.146-.576 9.557 2.402 2.408 6.66 2.292 9.522-.577l9.22-9.244c2.862-2.87 2.98-7.146.576-9.557a1.004 1.004 0 0 1 .002-1.422Z" clip-rule="evenodd"/>
  <path fill="#000" d="m75.633 33.297 3.778 4.811h-1.806l-3.334-4.296v4.296H72.76v-9.45h1.512v4.188l3.104-4.189h1.72l-3.462 4.64ZM62.136 30.068l.1.014v8.026h-1.505v-9.45h2.1l4.574 8.018-.093.022v-8.04h1.498v9.45h-2.107l-4.567-8.04ZM55.166 28.657h1.506v9.451h-1.506v-9.45ZM46.209 28.657h1.512v8.105h3.635v1.346h-5.147v-9.45ZM74.265 15.36H80v1.346h-4.237v2.714h4.165v1.31h-4.165v2.735H80v1.346h-5.735v-9.45ZM70.198 15.36v9.451h-1.506v-6.436l.072-1.21-.287 1.36-2.072 5.685h-1.484l-2.064-5.685-.287-1.36.072 1.21v6.436h-1.506v-9.45h2.058l2.365 7.073.108.566.1-.566 2.38-7.074h2.05ZM55.6 15.36h1.506v9.451H55.6v-9.45ZM48.087 16.706h-2.459V15.36h6.43v1.346H49.6v8.105h-1.513v-8.105ZM70.868 2.064h5.735V3.41h-4.237v2.713h4.165v1.31h-4.165v2.736h4.237v1.346h-5.735V2.064ZM60.195 3.474l.1.014v8.027H58.79V2.064h2.1l4.575 8.019-.094.021v-8.04h1.499v9.45h-2.108l-4.567-8.04ZM47.342 6.782c0 .65.136 1.239.408 1.768.273.525.648.943 1.126 1.253.477.306 1.027.459 1.648.459.631 0 1.183-.153 1.656-.459.478-.31.851-.728 1.119-1.253a3.81 3.81 0 0 0 .408-1.768c0-.65-.136-1.236-.408-1.761a3.138 3.138 0 0 0-1.119-1.246c-.473-.306-1.025-.458-1.656-.458-.62 0-1.17.152-1.648.458-.478.305-.853.72-1.126 1.246a3.767 3.767 0 0 0-.408 1.76Zm-1.57 0c0-.687.119-1.327.358-1.919a4.92 4.92 0 0 1 1.004-1.56c.43-.445.934-.79 1.512-1.039a4.711 4.711 0 0 1 1.878-.372c.684 0 1.312.124 1.886.372a4.623 4.623 0 0 1 2.509 2.6c.234.591.351 1.23.351 1.918 0 .692-.117 1.336-.351 1.933a4.726 4.726 0 0 1-.982 1.56c-.425.445-.927.79-1.506 1.04a4.785 4.785 0 0 1-1.907.371 4.855 4.855 0 0 1-1.92-.372 4.543 4.543 0 0 1-1.506-1.038 4.889 4.889 0 0 1-.982-1.56 5.341 5.341 0 0 1-.344-1.934Z"/>
</svg>
