<svg width="80" height="40" viewBox="0 0 80 40" fill="none" xmlns="http://www.w3.org/2000/svg">
<path fill-rule="evenodd" clip-rule="evenodd" d="M36.2831 3.71061C33.8813 1.30254 29.6228 1.41924 26.7612 4.28832C26.369 4.68161 25.7317 4.68284 25.338 4.29107C24.9442 3.89931 24.943 3.2629 25.3352 2.86961C28.8382 -0.642502 34.3827 -1.04312 37.7091 2.29188C41.0326 5.62398 40.6345 11.1763 37.1329 14.687L32.5233 19.3088C32.131 19.702 31.4938 19.7033 31.1 19.3115C30.7063 18.9198 30.705 18.2833 31.0973 17.8901L35.7069 13.2683C38.5698 10.3979 38.6879 6.12161 36.2831 3.71061ZM21.6293 8.00949C22.0231 8.40125 22.0243 9.03766 21.6321 9.43095L17.5421 13.5317C14.6791 16.4021 14.5611 20.6785 16.9658 23.0895C17.3581 23.4828 17.3568 24.1192 16.9631 24.5109C16.5693 24.9027 15.9321 24.9015 15.5398 24.5082C12.2164 21.1761 12.6144 15.6238 16.116 12.113L20.2061 8.01225C20.5983 7.61896 21.2355 7.61772 21.6293 8.00949Z" fill="#4820F8"/>
<path fill-rule="evenodd" clip-rule="evenodd" d="M23.0303 15.4891C23.4241 15.0973 24.0613 15.0986 24.4536 15.4918C27.7771 18.8239 27.379 24.3762 23.8774 27.887L14.6582 37.1304C11.1552 40.6426 5.61059 41.043 2.28428 37.7081C-1.03911 34.376 -0.64113 28.8237 2.86051 25.3129L7.47016 20.6911C7.86241 20.2978 8.49963 20.2966 8.89341 20.6883C9.2872 21.0801 9.28844 21.7165 8.89619 22.1098L4.28653 26.7316C1.4236 29.602 1.30558 33.8784 3.71029 36.2894C6.11209 38.6974 10.3706 38.5808 13.2322 35.7118L22.4513 26.4683C25.3143 23.5979 25.4323 19.3215 23.0276 16.9106C22.6353 16.5173 22.6366 15.8809 23.0303 15.4891Z" fill="black"/>
<path d="M75.6333 33.2967L79.4113 38.1081H77.6047L74.2712 33.8122V38.1081H72.7586V28.6572H74.2712V32.8456L77.3753 28.6572H79.0958L75.6333 33.2967Z" fill="black"/>
<path d="M62.1361 30.0676L62.2364 30.082V38.1081H60.731V28.6572H62.8314L67.4051 36.6761L67.312 36.6976V28.6572H68.8102V38.1081H66.7026L62.1361 30.0676Z" fill="black"/>
<path d="M55.1663 28.6572H56.6717V38.1081H55.1663V28.6572Z" fill="black"/>
<path d="M46.2088 28.6572H47.7214V36.762H51.356V38.1081H46.2088V28.6572Z" fill="black"/>
<path d="M74.2649 15.3604H80V16.7064H75.7632V19.42H79.9283V20.7302H75.7632V23.4653H80V24.8113H74.2649V15.3604Z" fill="black"/>
<path d="M70.1977 15.3604V24.8113H68.6923V18.3747L68.764 17.1647L68.4772 18.525L66.4054 24.2099H64.9215L62.8569 18.525L62.5701 17.1647L62.6418 18.3747V24.8113H61.1363V15.3604H63.1938L65.5595 22.4343L65.667 22.9999L65.7674 22.4343L68.1475 15.3604H70.1977Z" fill="black"/>
<path d="M55.6003 15.3604H57.1058V24.8113H55.6003V15.3604Z" fill="black"/>
<path d="M48.087 16.7064H45.6281V15.3604H52.0586V16.7064H49.5997V24.8113H48.087V16.7064Z" fill="black"/>
<path d="M70.8681 2.06363H76.6032V3.40967H72.3664V6.12323H76.5315V7.43348H72.3664V10.1685H76.6032V11.5146H70.8681V2.06363Z" fill="black"/>
<path d="M60.1954 3.47411L60.2958 3.48843V11.5146H58.7903V2.06363H60.8908L65.4645 10.0826L65.3713 10.1041V2.06363H66.8696V11.5146H64.762L60.1954 3.47411Z" fill="black"/>
<path d="M47.3415 6.78193C47.3415 7.43109 47.4777 8.02058 47.7501 8.5504C48.0225 9.07545 48.3977 9.49311 48.8756 9.80337C49.3535 10.1089 49.9031 10.2616 50.5244 10.2616C51.1553 10.2616 51.7073 10.1089 52.1804 9.80337C52.6584 9.49311 53.0311 9.07545 53.2988 8.5504C53.5712 8.02058 53.7074 7.43109 53.7074 6.78193C53.7074 6.13278 53.5712 5.54567 53.2988 5.02062C53.0311 4.49557 52.6584 4.0803 52.1804 3.77482C51.7073 3.46933 51.1553 3.31659 50.5244 3.31659C49.9031 3.31659 49.3535 3.46933 48.8756 3.77482C48.3977 4.0803 48.0225 4.49557 47.7501 5.02062C47.4777 5.54567 47.3415 6.13278 47.3415 6.78193ZM45.7715 6.78193C45.7715 6.09459 45.891 5.45498 46.1299 4.86311C46.3737 4.26646 46.7082 3.74618 47.1336 3.30227C47.5637 2.85836 48.0679 2.51231 48.6462 2.2641C49.2245 2.01589 49.8506 1.89179 50.5244 1.89179C51.2079 1.89179 51.8363 2.01589 52.4098 2.2641C52.9881 2.51231 53.4923 2.85836 53.9225 3.30227C54.3526 3.74618 54.6848 4.26646 54.9189 4.86311C55.1531 5.45498 55.2702 6.09459 55.2702 6.78193C55.2702 7.47405 55.1531 8.11843 54.9189 8.71508C54.6895 9.30696 54.3622 9.82723 53.9368 10.2759C53.5115 10.7198 53.0096 11.0659 52.4314 11.3141C51.8531 11.5623 51.2174 11.6864 50.5244 11.6864C49.8267 11.6864 49.1863 11.5623 48.6032 11.3141C48.0249 11.0659 47.5231 10.7198 47.0977 10.2759C46.6772 9.82723 46.3498 9.30696 46.1156 8.71508C45.8862 8.11843 45.7715 7.47405 45.7715 6.78193Z" fill="black"/>
</svg>
