<svg width="16" height="16" viewBox="0 0 16 16" fill="none" xmlns="http://www.w3.org/2000/svg">
<path fill-rule="evenodd" clip-rule="evenodd" d="M8 13.5C11.0376 13.5 13.5 11.0376 13.5 8C13.5 4.96243 11.0376 2.5 8 2.5C4.96243 2.5 2.5 4.96243 2.5 8C2.5 11.0376 4.96243 13.5 8 13.5ZM8 15C11.866 15 15 11.866 15 8C15 4.13401 11.866 1 8 1C4.13401 1 1 4.13401 1 8C1 11.866 4.13401 15 8 15ZM8.00024 7C8.41446 7 8.75024 7.33579 8.75024 7.75V11.25C8.75024 11.6642 8.41446 12 8.00024 12C7.58603 12 7.25024 11.6642 7.25024 11.25V7.75C7.25024 7.33579 7.58603 7 8.00024 7ZM8.00015 5.80005C8.4972 5.80005 8.90015 5.39711 8.90015 4.90005C8.90015 4.40299 8.4972 4.00005 8.00015 4.00005C7.50309 4.00005 7.10015 4.40299 7.10015 4.90005C7.10015 5.39711 7.50309 5.80005 8.00015 5.80005Z" fill="#8B99A9"/>
</svg>
